<svg xmlns="http://www.w3.org/2000/svg" viewBox="0 0 800 600" width="800" height="600">
  <defs>
    <linearGradient id="bg" x1="0%" y1="0%" x2="100%" y2="100%">
      <stop offset="0%" style="stop-color:#bfdbfe" />
      <stop offset="100%" style="stop-color:#93c5fd" />
    </linearGradient>
  </defs>
  <rect width="800" height="600" fill="url(#bg)" rx="12"/>
  <circle cx="80" cy="80" r="40" fill="#60a5fa" opacity="0.2"/>
  <circle cx="720" cy="520" r="60" fill="#3b82f6" opacity="0.15"/>
  <!-- Agenda/Planner book -->
  <rect x="250" y="160" width="300" height="320" rx="12" fill="white" shadow="0 10px 30px rgba(0,0,0,0.1)"/>
  <rect x="250" y="160" width="30" height="320" rx="8" fill="#3b82f6"/>
  <!-- Ring binding -->
  <circle cx="265" cy="200" r="8" fill="white" stroke="#1d4ed8" stroke-width="3"/>
  <circle cx="265" cy="240" r="8" fill="white" stroke="#1d4ed8" stroke-width="3"/>
  <circle cx="265" cy="280" r="8" fill="white" stroke="#1d4ed8" stroke-width="3"/>
  <circle cx="265" cy="320" r="8" fill="white" stroke="#1d4ed8" stroke-width="3"/>
  <circle cx="265" cy="360" r="8" fill="white" stroke="#1d4ed8" stroke-width="3"/>
  <circle cx="265" cy="400" r="8" fill="white" stroke="#1d4ed8" stroke-width="3"/>
  <circle cx="265" cy="440" r="8" fill="white" stroke="#1d4ed8" stroke-width="3"/>
  <!-- Page content -->
  <text x="295" y="200" font-family="Arial" font-size="16" fill="#1d4ed8" font-weight="bold">JANEIRO 2025</text>
  <!-- Calendar grid header -->
  <text x="295" y="225" font-family="Arial" font-size="10" fill="#6b7280">Dom Seg Ter Qua Qui Sex Sáb</text>
  <!-- Calendar rows -->
  <line x1="290" y1="230" x2="540" y2="230" stroke="#e5e7eb" stroke-width="1"/>
  <text x="295" y="248" font-family="Arial" font-size="11" fill="#374151">  1   2   3   4   5   6   7</text>
  <text x="295" y="265" font-family="Arial" font-size="11" fill="#374151">  8   9  10  11  12  13  14</text>
  <text x="295" y="282" font-family="Arial" font-size="11" fill="#374151">15  16  17  18  19  20  21</text>
  <text x="295" y="299" font-family="Arial" font-size="11" fill="#374151">22  23  24  25  26  27  28</text>
  <text x="295" y="316" font-family="Arial" font-size="11" fill="#374151">29  30  31</text>
  <!-- Highlighted date -->
  <circle cx="345" cy="265" r="10" fill="#3b82f6"/>
  <text x="345" y="269" font-family="Arial" font-size="11" fill="white" text-anchor="middle">9</text>
  <!-- Notes section -->
  <line x1="290" y1="335" x2="540" y2="335" stroke="#e5e7eb" stroke-width="1"/>
  <text x="295" y="355" font-family="Arial" font-size="12" fill="#6b7280">Notas:</text>
  <line x1="290" y1="370" x2="540" y2="370" stroke="#dbeafe" stroke-width="1"/>
  <line x1="290" y1="385" x2="540" y2="385" stroke="#dbeafe" stroke-width="1"/>
  <line x1="290" y1="400" x2="540" y2="400" stroke="#dbeafe" stroke-width="1"/>
  <line x1="290" y1="415" x2="540" y2="415" stroke="#dbeafe" stroke-width="1"/>
  <!-- Small star -->
  <text x="490" y="360" font-family="Arial" font-size="20" fill="#fbbf24">★</text>
  <!-- Pen on top -->
  <g transform="rotate(-35, 560, 200)">
    <rect x="545" y="120" width="12" height="100" rx="3" fill="#e11d48"/>
    <polygon points="545,220 557,220 551,240" fill="#fca5a5"/>
    <rect x="545" y="118" width="12" height="10" rx="2" fill="#9f1239"/>
  </g>
  <!-- Label -->
  <rect x="260" y="510" width="280" height="50" rx="25" fill="white" opacity="0.9"/>
  <text x="400" y="542" font-family="Arial" font-size="18" fill="#1d4ed8" font-weight="bold" text-anchor="middle">📅 Agendas</text>
</svg>
