<svg xmlns="http://www.w3.org/2000/svg" viewBox="0 0 800 600" width="800" height="600">
  <defs>
    <linearGradient id="bg" x1="0%" y1="0%" x2="100%" y2="100%">
      <stop offset="0%" style="stop-color:#fecaca" />
      <stop offset="100%" style="stop-color:#fda4af" />
    </linearGradient>
  </defs>
  <rect width="800" height="600" fill="url(#bg)" rx="12"/>
  <circle cx="100" cy="120" r="55" fill="#fb7185" opacity="0.2"/>
  <circle cx="680" cy="480" r="65" fill="#e11d48" opacity="0.12"/>
  <!-- Canvas/Sketchbook -->
  <rect x="200" y="140" width="280" height="340" rx="10" fill="white" opacity="0.95"/>
  <rect x="200" y="140" width="280" height="24" rx="8" fill="#f43f5e"/>
  <!-- Watercolor splashes on canvas -->
  <ellipse cx="310" cy="290" rx="55" ry="45" fill="#f9a8d4" opacity="0.6"/>
  <ellipse cx="370" cy="260" rx="45" ry="40" fill="#93c5fd" opacity="0.5"/>
  <ellipse cx="340" cy="330" rx="40" ry="35" fill="#fde68a" opacity="0.6"/>
  <ellipse cx="290" cy="320" rx="35" ry="30" fill="#86efac" opacity="0.5"/>
  <ellipse cx="380" cy="310" rx="38" ry="32" fill="#c4b5fd" opacity="0.5"/>
  <!-- Paint palette -->
  <ellipse cx="540" cy="300" rx="80" ry="65" fill="#fef3c7" opacity="0.95"/>
  <ellipse cx="540" cy="300" rx="70" ry="55" fill="white" opacity="0.8"/>
  <!-- Palette thumb hole -->
  <ellipse cx="520" cy="280" rx="16" ry="14" fill="#fde68a" opacity="0.6"/>
  <!-- Paint blobs on palette -->
  <circle cx="485" cy="315" r="12" fill="#ef4444"/>
  <circle cx="510" cy="345" r="12" fill="#f97316"/>
  <circle cx="540" cy="355" r="12" fill="#fbbf24"/>
  <circle cx="570" cy="345" r="12" fill="#22c55e"/>
  <circle cx="590" cy="320" r="12" fill="#3b82f6"/>
  <circle cx="585" cy="290" r="12" fill="#8b5cf6"/>
  <!-- Paint brush -->
  <g transform="rotate(-20, 580, 180)">
    <rect x="570" y="120" width="10" height="80" rx="2" fill="#92400e"/>
    <rect x="568" y="198" width="14" height="6" fill="#6b7280"/>
    <ellipse cx="575" cy="220" rx="7" ry="22" fill="#374151" opacity="0.9"/>
    <ellipse cx="575" cy="238" rx="4" ry="5" fill="#1f2937"/>
  </g>
  <!-- Second brush -->
  <g transform="rotate(15, 190, 280)">
    <rect x="182" y="200" width="10" height="80" rx="2" fill="#78350f"/>
    <rect x="180" y="278" width="14" height="6" fill="#6b7280"/>
    <ellipse cx="187" cy="300" rx="7" ry="22" fill="#ef4444" opacity="0.9"/>
  </g>
  <!-- Label -->
  <rect x="260" y="510" width="280" height="50" rx="25" fill="white" opacity="0.9"/>
  <text x="400" y="542" font-family="Arial" font-size="18" fill="#e11d48" font-weight="bold" text-anchor="middle">🎨 Arte &amp; Craft</text>
</svg>
