<svg xmlns="http://www.w3.org/2000/svg" viewBox="0 0 800 600" width="800" height="600">
  <defs>
    <linearGradient id="bg" x1="0%" y1="0%" x2="100%" y2="100%">
      <stop offset="0%" style="stop-color:#fde68a;stop-opacity:1" />
      <stop offset="100%" style="stop-color:#fbbf24;stop-opacity:1" />
    </linearGradient>
    <linearGradient id="book1" x1="0%" y1="0%" x2="0%" y2="100%">
      <stop offset="0%" style="stop-color:#e11d48" />
      <stop offset="100%" style="stop-color:#9f1239" />
    </linearGradient>
    <linearGradient id="book2" x1="0%" y1="0%" x2="0%" y2="100%">
      <stop offset="0%" style="stop-color:#3b82f6" />
      <stop offset="100%" style="stop-color:#1d4ed8" />
    </linearGradient>
    <linearGradient id="book3" x1="0%" y1="0%" x2="0%" y2="100%">
      <stop offset="0%" style="stop-color:#10b981" />
      <stop offset="100%" style="stop-color:#065f46" />
    </linearGradient>
  </defs>
  <rect width="800" height="600" fill="url(#bg)" rx="12"/>
  <!-- decorative dots -->
  <circle cx="50" cy="50" r="6" fill="#f59e0b" opacity="0.5"/>
  <circle cx="750" cy="80" r="10" fill="#fbbf24" opacity="0.4"/>
  <circle cx="100" cy="550" r="8" fill="#f59e0b" opacity="0.4"/>
  <circle cx="700" cy="520" r="12" fill="#fbbf24" opacity="0.3"/>
  <!-- Book stack -->
  <!-- Book 3 (bottom) -->
  <rect x="240" y="340" width="320" height="40" rx="4" fill="url(#book3)" />
  <rect x="240" y="340" width="24" height="40" rx="2" fill="#065f46"/>
  <rect x="244" y="345" width="4" height="30" rx="1" fill="#d1fae5" opacity="0.5"/>
  <!-- Book 2 (middle) -->
  <rect x="250" y="280" width="300" height="65" rx="4" fill="url(#book2)" />
  <rect x="250" y="280" width="26" height="65" rx="2" fill="#1d4ed8"/>
  <rect x="255" y="290" width="4" height="45" rx="1" fill="#bfdbfe" opacity="0.5"/>
  <text x="310" y="322" font-family="Arial" font-size="16" fill="white" opacity="0.8">CADERNO</text>
  <!-- Book 1 (top) -->
  <rect x="260" y="200" width="280" height="85" rx="6" fill="url(#book1)" />
  <rect x="260" y="200" width="28" height="85" rx="3" fill="#9f1239"/>
  <rect x="265" y="213" width="5" height="59" rx="1" fill="#fecdd3" opacity="0.6"/>
  <text x="322" y="247" font-family="Arial" font-size="18" fill="white" opacity="0.9" font-weight="bold">PAPELARIA</text>
  <text x="322" y="268" font-family="Arial" font-size="13" fill="#fecdd3">Cadernos Premium</text>
  <!-- Stars decoration -->
  <text x="350" y="170" font-family="Arial" font-size="28" fill="#f59e0b">★</text>
  <text x="400" y="160" font-family="Arial" font-size="20" fill="#fbbf24" opacity="0.6">★</text>
  <text x="320" y="155" font-family="Arial" font-size="16" fill="#f59e0b" opacity="0.5">★</text>
  <!-- Pencil -->
  <g transform="rotate(-25, 580, 300)">
    <rect x="555" y="180" width="14" height="120" rx="2" fill="#fbbf24"/>
    <polygon points="555,300 569,300 562,330" fill="#e5e7eb"/>
    <polygon points="558,316 566,316 562,330" fill="#1f2937"/>
    <rect x="555" y="178" width="14" height="14" rx="2" fill="#ef4444"/>
  </g>
  <!-- Label -->
  <rect x="260" y="430" width="280" height="50" rx="25" fill="white" opacity="0.9"/>
  <text x="400" y="462" font-family="Arial" font-size="18" fill="#e11d48" font-weight="bold" text-anchor="middle">📓 Cadernos</text>
</svg>
