<svg xmlns="http://www.w3.org/2000/svg" viewBox="0 0 800 600" width="800" height="600">
  <defs>
    <linearGradient id="bg" x1="0%" y1="0%" x2="100%" y2="100%">
      <stop offset="0%" style="stop-color:#e9d5ff" />
      <stop offset="100%" style="stop-color:#c4b5fd" />
    </linearGradient>
  </defs>
  <rect width="800" height="600" fill="url(#bg)" rx="12"/>
  <circle cx="90" cy="90" r="45" fill="#a78bfa" opacity="0.2"/>
  <circle cx="710" cy="510" r="60" fill="#7c3aed" opacity="0.12"/>
  <!-- Desk organizer base -->
  <rect x="220" y="330" width="360" height="160" rx="10" fill="#ddd6fe" opacity="0.9"/>
  <!-- Dividers in organizer -->
  <rect x="260" y="210" width="70" height="150" rx="6" fill="#8b5cf6" opacity="0.9"/>
  <rect x="340" y="230" width="70" height="130" rx="6" fill="#7c3aed" opacity="0.9"/>
  <rect x="420" y="220" width="70" height="140" rx="6" fill="#6d28d9" opacity="0.9"/>
  <rect x="500" y="240" width="60" height="120" rx="6" fill="#8b5cf6" opacity="0.7"/>
  <!-- Items inside organizer -->
  <!-- Scissors in first slot -->
  <line x1="295" y1="215" x2="295" y2="295" stroke="#f3f4f6" stroke-width="3" stroke-linecap="round"/>
  <circle cx="295" cy="215" r="6" fill="#f3f4f6" stroke="#ddd6fe" stroke-width="2"/>
  <circle cx="283" cy="220" r="5" fill="#f3f4f6" stroke="#ddd6fe" stroke-width="2"/>
  <!-- Rulers in second slot -->
  <rect x="347" y="232" width="8" height="126" rx="2" fill="#fde68a"/>
  <rect x="360" y="232" width="8" height="126" rx="2" fill="#fef3c7"/>
  <!-- Small markings on ruler -->
  <line x1="348" y1="245" x2="352" y2="245" stroke="#92400e" stroke-width="1"/>
  <line x1="348" y1="255" x2="352" y2="255" stroke="#92400e" stroke-width="1"/>
  <line x1="348" y1="265" x2="354" y2="265" stroke="#92400e" stroke-width="1.5"/>
  <line x1="348" y1="275" x2="352" y2="275" stroke="#92400e" stroke-width="1"/>
  <!-- Pens in third slot -->
  <rect x="428" y="225" width="8" height="132" rx="3" fill="#ef4444"/>
  <rect x="440" y="225" width="8" height="132" rx="3" fill="#3b82f6"/>
  <rect x="452" y="225" width="8" height="132" rx="3" fill="#10b981"/>
  <!-- Clips scattered -->
  <g transform="translate(180, 260) rotate(-20)">
    <rect x="0" y="0" width="30" height="10" rx="5" fill="#a78bfa" stroke="#7c3aed" stroke-width="2" fill-opacity="0.8"/>
    <rect x="4" y="2" width="22" height="6" rx="3" fill="none" stroke="#7c3aed" stroke-width="1.5"/>
  </g>
  <g transform="translate(560, 200) rotate(15)">
    <rect x="0" y="0" width="28" height="9" rx="4" fill="#f472b6" stroke="#db2777" stroke-width="2" fill-opacity="0.8"/>
    <rect x="3" y="2" width="22" height="5" rx="3" fill="none" stroke="#db2777" stroke-width="1.5"/>
  </g>
  <g transform="translate(570, 250) rotate(-10)">
    <rect x="0" y="0" width="28" height="9" rx="4" fill="#fbbf24" stroke="#d97706" stroke-width="2" fill-opacity="0.8"/>
    <rect x="3" y="2" width="22" height="5" rx="3" fill="none" stroke="#d97706" stroke-width="1.5"/>
  </g>
  <!-- Post-it notes -->
  <rect x="150" y="350" width="70" height="70" rx="4" fill="#fef08a" opacity="0.9" transform="rotate(-10, 185, 385)"/>
  <line x1="158" y1="375" x2="210" y2="375" stroke="#d97706" stroke-width="1.5" opacity="0.5" transform="rotate(-10, 185, 385)"/>
  <line x1="158" y1="388" x2="210" y2="388" stroke="#d97706" stroke-width="1.5" opacity="0.5" transform="rotate(-10, 185, 385)"/>
  <!-- Label -->
  <rect x="260" y="510" width="280" height="50" rx="25" fill="white" opacity="0.9"/>
  <text x="400" y="542" font-family="Arial" font-size="18" fill="#7c3aed" font-weight="bold" text-anchor="middle">🖇️ Organização</text>
</svg>
